<svg width="128" height="128" viewBox="0 0 128 128" fill="none" xmlns="http://www.w3.org/2000/svg">
<rect width="128" height="128" rx="8" fill="#38B117"/>
<path d="M40.9664 29.7652C40.9664 36.7571 35.2983 42.4252 28.3064 42.4252C21.3145 42.4252 15.6465 36.7571 15.6465 29.7652C15.6465 22.7733 21.3145 17.1053 28.3064 17.1053C35.2983 17.1053 40.9664 22.7733 40.9664 29.7652Z" fill="white" fill-opacity="0.2"/>
<path d="M111.862 29.7652C111.862 36.7571 106.194 42.4252 99.202 42.4252C92.2102 42.4252 86.5421 36.7571 86.5421 29.7652C86.5421 22.7733 92.2102 17.1053 99.202 17.1053C106.194 17.1053 111.862 22.7733 111.862 29.7652Z" fill="white" fill-opacity="0.2"/>
<path d="M40.9664 98.4454C40.9664 105.437 35.2983 111.105 28.3064 111.105C21.3145 111.105 15.6465 105.437 15.6465 98.4454C15.6465 91.4535 21.3145 85.7854 28.3064 85.7854C35.2983 85.7854 40.9664 91.4535 40.9664 98.4454Z" fill="white" fill-opacity="0.2"/>
<path d="M111.862 98.4454C111.862 105.437 106.194 111.105 99.202 111.105C92.2102 111.105 86.5421 105.437 86.5421 98.4454C86.5421 91.4535 92.2102 85.7854 99.202 85.7854C106.194 85.7854 111.862 91.4535 111.862 98.4454Z" fill="white" fill-opacity="0.2"/>
<path d="M76.4141 64.1052C76.4141 71.0971 70.7461 76.7652 63.7542 76.7652C56.7623 76.7652 51.0942 71.0971 51.0942 64.1052C51.0942 57.1134 56.7623 51.4453 63.7542 51.4453C70.7461 51.4453 76.4141 57.1134 76.4141 64.1052Z" fill="white"/>
<path d="M76.4142 29.7652C76.4142 36.7571 70.7461 42.4252 63.7542 42.4252C56.7623 42.4252 51.0943 36.7571 51.0943 29.7652C51.0943 22.7733 56.7623 17.1053 63.7542 17.1053C70.7461 17.1053 76.4142 22.7733 76.4142 29.7652Z" fill="white" fill-opacity="0.6"/>
<path d="M40.9664 64.1053C40.9664 71.0972 35.2983 76.7652 28.3064 76.7652C21.3145 76.7652 15.6465 71.0972 15.6465 64.1053C15.6465 57.1134 21.3145 51.4453 28.3064 51.4453C35.2983 51.4453 40.9664 57.1134 40.9664 64.1053Z" fill="white" fill-opacity="0.6"/>
<path d="M111.862 64.1053C111.862 71.0972 106.194 76.7652 99.202 76.7652C92.2102 76.7652 86.5421 71.0972 86.5421 64.1053C86.5421 57.1134 92.2102 51.4453 99.202 51.4453C106.194 51.4453 111.862 57.1134 111.862 64.1053Z" fill="white" fill-opacity="0.6"/>
<path d="M76.4142 98.4454C76.4142 105.437 70.7461 111.105 63.7542 111.105C56.7623 111.105 51.0943 105.437 51.0943 98.4454C51.0943 91.4535 56.7623 85.7854 63.7542 85.7854C70.7461 85.7854 76.4142 91.4535 76.4142 98.4454Z" fill="white" fill-opacity="0.6"/>
</svg>
