<svg width="23" height="21" viewBox="0 0 23 21" fill="none" xmlns="http://www.w3.org/2000/svg">
<g clip-path="url(#clip0_286_428)">
<path d="M22.5126 15.808L18.837 19.7489C18.7574 19.8343 18.6611 19.9024 18.554 19.9491C18.447 19.9958 18.3315 20.0201 18.2147 20.0205H0.790215C0.707291 20.02 0.626281 19.9955 0.55703 19.9499C0.487779 19.9043 0.433267 19.8395 0.400119 19.7635C0.366971 19.6875 0.356614 19.6035 0.370306 19.5217C0.383999 19.4399 0.421151 19.3639 0.477248 19.3028L4.14831 15.3619C4.22797 15.2765 4.3243 15.2084 4.43134 15.1616C4.53838 15.1149 4.65386 15.0907 4.77064 15.0903H22.1951C22.279 15.0887 22.3614 15.1118 22.4322 15.1569C22.5029 15.2019 22.5587 15.2669 22.5926 15.3435C22.6266 15.4202 22.6371 15.5052 22.6228 15.5879C22.6086 15.6705 22.5702 15.7471 22.5126 15.808ZM18.837 7.86962C18.7571 7.78463 18.6607 7.71675 18.5537 7.67007C18.4467 7.62339 18.3314 7.59888 18.2147 7.59802H0.790215C0.707116 7.59807 0.625836 7.62235 0.55633 7.6679C0.486825 7.71344 0.432112 7.77827 0.398895 7.85444C0.365678 7.93061 0.355398 8.01482 0.369315 8.09675C0.383232 8.17867 0.420741 8.25476 0.477248 8.31569L4.14831 12.2592C4.2283 12.3442 4.32469 12.4121 4.43166 12.4588C4.53862 12.5055 4.65394 12.53 4.77064 12.5308H22.1951C22.2779 12.5301 22.3587 12.5053 22.4277 12.4595C22.4966 12.4138 22.5509 12.349 22.5838 12.2731C22.6167 12.1971 22.6269 12.1133 22.6132 12.0316C22.5994 11.95 22.5623 11.8741 22.5063 11.8132L18.837 7.86962ZM0.790215 5.03853H18.2147C18.3315 5.0382 18.447 5.01393 18.554 4.96721C18.6611 4.9205 18.7574 4.85234 18.837 4.76693L22.5126 0.825176C22.5554 0.779461 22.5876 0.724908 22.6069 0.665377C22.6262 0.605846 22.6323 0.542791 22.6245 0.480674C22.6168 0.418557 22.5955 0.358896 22.5622 0.305912C22.5289 0.252929 22.4843 0.207917 22.4317 0.174062C22.3612 0.128947 22.2788 0.105785 22.1951 0.107512H4.77064C4.65386 0.107843 4.53838 0.132115 4.43134 0.178829C4.3243 0.225543 4.22797 0.293706 4.14831 0.379109L0.477248 4.32087C0.420741 4.3818 0.383232 4.45788 0.369315 4.53981C0.355398 4.62173 0.365678 4.70594 0.398895 4.78211C0.432112 4.85828 0.486825 4.92311 0.55633 4.96865C0.625836 5.0142 0.707116 5.03848 0.790215 5.03853Z" fill="url(#paint0_linear_286_428)"/>
</g>
<defs>
<linearGradient id="paint0_linear_286_428" x1="2.24263" y1="20.4962" x2="20.5125" y2="-0.102033" gradientUnits="userSpaceOnUse">
<stop offset="0.08" stop-color="#9945FF"/>
<stop offset="0.3" stop-color="#8752F3"/>
<stop offset="0.5" stop-color="#5497D5"/>
<stop offset="0.6" stop-color="#43B4CA"/>
<stop offset="0.72" stop-color="#28E0B9"/>
<stop offset="0.97" stop-color="#19FB9B"/>
</linearGradient>
<clipPath id="clip0_286_428">
<rect width="23" height="21" fill="white"/>
</clipPath>
</defs>
</svg>
