<svg width="64" height="64" viewBox="0 0 64 64" fill="none" xmlns="http://www.w3.org/2000/svg">
<rect width="64" height="64" rx="4" fill="#38B117"/>
<path d="M31.0146 6.61967C33.4155 6.59583 35.6118 6.82264 37.9309 7.40125C48.528 10.0451 56.3586 19.0885 56.9968 30.072C57.6887 41.9921 49.3495 52.6682 37.9166 55.619C36.1413 56.0773 34.3742 56.2405 32.5603 56.3673C31.4375 56.4196 30.434 56.3416 29.3201 56.2376C23.6827 55.7101 18.8522 53.4765 14.6425 49.7431C9.77395 45.4053 6.82824 39.311 6.45355 32.8011C6.0696 26.3827 8.24558 20.0739 12.5047 15.2569C17.4444 9.72052 23.6995 7.03001 31.0146 6.61967ZM12.4726 17.5395C11.9176 18.3072 11.4091 19.1073 10.9498 19.9357C9.04394 23.3731 8.02189 27.2302 7.97551 31.1603C7.87449 39.7203 12.3927 47.671 19.7985 51.9651C27.2042 56.2593 36.349 56.2307 43.7278 51.8904C51.1067 47.5503 55.575 39.5716 55.4207 31.0124C55.3496 27.0542 54.2887 23.1768 52.3353 19.7334C51.9042 18.9736 51.4315 18.2382 50.9194 17.5305C48.0309 13.5392 43.9715 10.5462 39.3046 8.96686C34.2171 7.24514 28.6958 7.30061 23.6439 9.12421C19.1591 10.7431 15.2662 13.6756 12.4726 17.5395Z" fill="url(#paint0_linear_718_223)"/>
<path d="M23.6439 9.12421C28.6958 7.30061 34.2171 7.24514 39.3046 8.96686C43.9715 10.5462 48.0309 13.5392 50.9194 17.5305C51.4315 18.2382 51.9042 18.9736 52.3353 19.7334C54.2887 23.1768 55.3496 27.0542 55.4207 31.0124C55.575 39.5716 51.1067 47.5503 43.7278 51.8904C36.349 56.2307 27.2042 56.2593 19.7985 51.9651C12.3927 47.671 7.87449 39.7203 7.97551 31.1603C8.02189 27.2302 9.04394 23.3731 10.9498 19.9357C11.4091 19.1073 11.9176 18.3072 12.4726 17.5395C15.2662 13.6756 19.1591 10.7431 23.6439 9.12421ZM24.9521 35.7418C26.3692 35.7352 27.9397 35.9211 29.4257 35.9558C32.656 36.0258 35.8879 35.9342 39.109 35.6812C39.2982 35.5842 42.3235 35.3463 42.9653 35.1837C42.9525 34.7007 43.0268 34.2491 43.0567 33.7712C43.0919 33.2085 43.1155 32.6384 43.1421 32.0745C43.2666 31.6606 43.1707 30.4443 43.2929 30.1582C43.3272 30.264 43.3341 30.2663 43.4174 30.3445C43.6088 30.4154 43.8547 30.4008 44.0519 30.3619C44.4216 30.289 44.4596 30.5601 44.9207 30.5105L44.9672 30.5052C45.0375 30.6093 45.0976 31.6609 45.1137 31.8527C45.1024 32.7335 45.1204 34.1234 44.9382 34.9505C47.102 34.5067 49.2776 34.0011 51.3138 33.1036C51.885 32.8518 52.2916 32.5467 52.8007 32.2695L52.8452 32.3067C53.2481 32.2197 53.4875 31.5456 53.6991 31.2655L53.8071 31.4008C54.2593 31.2221 54.788 31.3066 55.361 31.1683L55.4207 31.0124C55.3496 27.0542 54.2887 23.1768 52.3353 19.7334C51.9042 18.9736 51.4315 18.2382 50.9194 17.5305C48.0309 13.5392 43.9715 10.5462 39.3046 8.96686C34.2171 7.24514 28.6958 7.30061 23.6439 9.12421C19.1591 10.7431 15.2662 13.6756 12.4726 17.5395C11.9176 18.3072 11.4091 19.1073 10.9498 19.9357C9.04394 23.3731 8.02189 27.2302 7.97551 31.1603L8.01832 31.1644C8.42515 31.2011 9.56863 31.0495 9.74068 31.291C10.144 31.8572 10.051 31.9858 10.6672 32.4026L10.8295 32.4197C13.1146 33.8705 15.8986 34.3235 18.4543 34.9242C18.3478 34.2896 18.3196 33.8374 18.3212 33.1932C18.3432 33.01 18.3385 32.8243 18.3387 32.64C18.3397 31.9086 18.3991 31.1838 18.4597 30.4549L18.5044 30.5886C18.81 30.7274 19.6867 30.235 20.0675 30.2937C20.2745 30.3257 20.0977 31.2132 20.234 31.4412C20.3046 32.6814 20.3072 33.9819 20.4271 35.2046C21.2363 35.295 22.0613 35.4358 22.8779 35.5132C23.5206 35.5742 24.3232 35.611 24.9521 35.7418ZM52.3006 38.9385C50.1206 41.6365 45.9721 44.1371 42.6841 45.2236C41.8943 47.4305 40.6436 49.6838 39.0743 51.4209C38.9388 51.5709 38.5485 51.9351 38.5499 52.1154C39.4604 51.7251 40.6716 51.3018 41.5476 50.849C46.343 48.3703 50.0992 44.3926 52.197 39.4083C52.2495 39.2835 52.3364 39.0684 52.3006 38.9385ZM22.2805 43.7395C23.2548 43.9593 24.2216 44.3312 25.2049 44.5178C29.1646 45.2692 32.9509 45.4468 36.9298 44.73C38.3311 44.4776 39.7526 44.208 41.102 43.71C41.1776 43.5149 41.2651 43.3026 41.3311 43.106C41.9458 41.4201 42.3233 39.628 42.594 37.8591C42.6233 37.6679 42.6523 37.4905 42.7001 37.3024C41.6745 37.3214 40.328 37.6283 39.2634 37.6686C38.3567 37.7029 37.4153 37.828 36.5156 37.8723C34.3583 37.9604 32.1988 37.9885 30.0398 37.9566C27.9823 37.923 25.9267 37.8149 23.877 37.6326C23.3227 37.5792 21.1244 37.2652 20.6723 37.2826C20.9128 38.9191 21.6704 42.2749 22.2805 43.7395ZM24.9382 52.0828L24.9112 52.0491C24.5314 51.5797 24.0629 51.1662 23.6688 50.6859C22.2797 48.9934 21.6246 47.1681 20.694 45.2498C17.7148 44.0751 15.0696 42.6911 12.6539 40.5612C12.3933 40.3315 11.2077 39.011 11.0277 38.944C11.1239 39.2911 11.6663 40.3361 11.8361 40.6939C13.7935 44.8176 17.1716 48.2479 21.1446 50.4671C21.7306 50.7945 24.3331 52.0195 24.9382 52.0828ZM44.6839 36.9237C44.7151 38.0403 44.2133 40.0778 43.9765 41.2422C43.9095 41.572 43.5379 42.5788 43.5973 42.8221C46.6851 41.406 49.8976 39.2798 51.9171 36.4954C52.2447 36.0437 52.7945 34.9688 53.0505 34.4588C53.0345 34.4072 53.0385 34.3879 53.0082 34.3588C50.8988 35.497 48.4048 36.2764 46.0502 36.7057C45.681 36.773 45.0338 36.9061 44.6839 36.9237ZM18.6165 36.8998C16.7476 36.7188 14.1201 35.9271 12.3581 35.2541C11.6872 34.9978 10.9682 34.5854 10.3819 34.3586C10.482 34.7503 10.7367 35.2316 10.9372 35.5878C12.2538 37.9271 14.6637 39.941 16.9243 41.3312C17.3878 41.6162 19.3725 42.6767 19.8748 42.8503C19.7359 42.102 19.4471 41.2445 19.2753 40.4846C19.0089 39.3067 18.7844 38.0956 18.6165 36.8998ZM37.9161 49.8221C39.1337 48.3418 39.4008 47.566 40.2762 45.9882C39.5551 46.208 38.75 46.3584 38.0076 46.5119C32.7171 47.6061 28.3814 47.1548 23.1892 46.0499C23.3483 46.5676 23.8452 47.3968 24.1282 47.8788C25.182 49.6744 26.5545 51.3584 28.4313 52.3511C30.0791 53.215 32.0012 53.394 33.7802 52.8493C35.4159 52.3435 36.8713 51.1539 37.9161 49.8221Z" fill="url(#paint1_linear_718_223)"/>
<path d="M23.6439 9.12421C28.6958 7.30061 34.2171 7.24514 39.3046 8.96686C43.9715 10.5462 48.0309 13.5392 50.9194 17.5305C51.4315 18.2382 51.9042 18.9736 52.3353 19.7334C54.2887 23.1768 55.3496 27.0542 55.4207 31.0124L55.361 31.1683C54.788 31.3066 54.2593 31.2221 53.8071 31.4008L53.6991 31.2655C53.4875 31.5456 53.2481 32.2197 52.8452 32.3067L52.8007 32.2695C53.091 31.8507 54.0953 31.3226 53.4801 30.5309C52.0505 28.6912 49.1507 28.1543 47.0083 27.5407C46.3297 27.3463 45.6155 27.2767 44.9541 27.0974C45.137 28.0651 45.2022 30.873 45.1137 31.8527C45.0976 31.6609 45.0375 30.6093 44.9672 30.5052L44.9207 30.5105C44.4596 30.5601 44.4216 30.289 44.0519 30.3619C43.8547 30.4008 43.6088 30.4154 43.4174 30.3445C43.3341 30.2663 43.3272 30.264 43.2929 30.1582C43.1707 30.4443 43.2666 31.6606 43.1421 32.0745C43.1527 30.7561 43.1433 29.4248 43.0233 28.1108C42.9829 27.669 42.9547 27.2383 42.9553 26.7947C41.2355 26.6177 39.5256 26.3845 37.7994 26.2775C37.3252 26.2481 36.8185 26.1734 36.3489 26.1637C31.4579 26.0631 26.569 26.0161 21.7104 26.6833C21.4141 26.7241 20.6955 26.7181 20.4827 26.8655C20.305 27.2848 20.2478 30.7512 20.234 31.4412C20.0977 31.2132 20.2745 30.3257 20.0675 30.2937C19.6867 30.235 18.81 30.7274 18.5044 30.5886L18.4597 30.4549C18.3991 31.1838 18.3397 31.9086 18.3387 32.64C18.3385 32.8243 18.3432 33.01 18.3212 33.1932C18.1858 32.1957 18.2952 28.1018 18.4571 27.1249C16.1889 27.5603 11.7277 28.5005 10.0872 30.295C9.89274 30.5078 9.74981 30.876 9.78633 31.1804C9.84762 31.6914 10.4355 32.1159 10.8295 32.4197L10.6672 32.4026C10.051 31.9858 10.144 31.8572 9.74068 31.291C9.56863 31.0495 8.42515 31.2011 8.01832 31.1644L7.97551 31.1603C8.02189 27.2302 9.04394 23.3731 10.9498 19.9357C11.4091 19.1073 11.9176 18.3072 12.4726 17.5395C15.2662 13.6756 19.1591 10.7431 23.6439 9.12421ZM21.8316 19.9852C21.6656 20.5674 21.4937 21.1493 21.3557 21.7386C21.0667 22.802 20.9129 23.7568 20.6681 24.8172C21.4896 24.6193 22.9013 24.5214 23.7644 24.436C28.5119 24.0018 33.2866 23.9472 38.0428 24.2729C38.4608 24.3018 39 24.3695 39.4234 24.4149C40.287 24.5075 41.8917 24.5777 42.6753 24.7873C42.6374 24.6434 42.6131 24.4949 42.5941 24.3473C42.4597 23.3024 42.2028 22.2964 41.9577 21.2728C41.753 20.5349 41.4776 19.7537 41.2427 19.0172C41.1309 18.9209 41.0751 18.8116 40.9968 18.686C40.312 18.4032 39.3068 18.1576 38.5808 17.9826C34.1829 16.9225 28.7802 16.9736 24.3958 18.1044C23.8531 18.2443 22.7977 18.5026 22.285 18.7023C22.0982 19.1165 21.9466 19.5456 21.8316 19.9852ZM43.8941 20.8939C44.0768 21.155 44.6846 24.6159 44.7248 25.1142C47.7618 25.5795 50.3844 26.3007 53.0975 27.7643C52.6925 27.0603 52.2198 26.1845 51.7386 25.5405C50.2046 23.4873 48.118 21.9747 45.9194 20.7059C45.9111 20.6997 45.9029 20.6936 45.8947 20.6874C45.1376 20.3175 44.2338 19.9106 43.5034 19.5302C43.582 19.8012 43.863 20.6733 43.8941 20.8939ZM19.4887 20.9969C19.5745 20.5004 19.7337 20.0309 19.902 19.558C18.9592 20.0012 18.0973 20.4087 17.1607 20.8778C14.0515 22.9555 12.1254 24.1743 10.3673 27.7097C12.9603 26.3466 15.7105 25.583 18.5939 25.1336C18.72 24.5347 19.2664 21.3278 19.4887 20.9969ZM11.0932 23.2759C11.4642 22.9585 11.8571 22.4695 12.2045 22.1552C13.0376 21.4014 14.7297 19.9668 15.7272 19.4935C16.1121 19.2649 17.7845 18.2829 18.1273 18.2249C18.8779 17.7356 19.9689 17.4482 20.7495 17.0545C21.0024 16.6671 21.1908 16.2079 21.3888 15.7991C22.1547 14.2175 23.0908 12.6291 24.3351 11.3754C24.4761 11.2333 24.616 11.0756 24.7527 10.9259C24.2857 10.7525 20.95 12.4581 20.3747 12.8049C18.1047 14.173 15.6918 16.1484 14.109 18.2817C13.9366 18.5773 13.0338 19.7776 12.7825 20.1168C12.6776 20.3595 12.3769 20.8244 12.2355 21.0868C11.8495 21.8137 11.4686 22.5435 11.0932 23.2759ZM34.8297 10.4742C32.7102 9.59436 31.0559 9.45646 28.8725 10.3622C28.7131 10.4282 28.5547 10.4964 28.3973 10.567C26.1972 11.583 24.3774 14.2442 23.2677 16.3276C28.1953 15.0746 33.0544 14.8568 38.0411 15.8323C38.6631 15.954 39.3409 16.1743 39.9575 16.2482C40.0666 15.9843 39.3662 15.0213 39.2101 14.7638C38.0933 12.9216 36.7558 11.4818 34.8297 10.4742ZM38.5199 10.7938C40.3712 12.5959 41.5655 14.8065 42.6267 17.124C43.3521 17.3688 44.6515 17.805 45.2875 18.2218C45.7915 18.4452 47.8957 19.4999 48.1894 19.829C49.7284 20.6986 51.0743 22.0075 52.2669 23.2821C51.7753 22.0533 51.1952 21.3145 50.6915 20.2747C50.7254 20.3032 49.2842 18.2659 49.2879 18.2736C49.0725 18.0737 48.7896 17.7013 48.5927 17.4696C46.3583 14.8389 43.4127 12.7314 40.2283 11.4068C39.6682 11.1738 39.0916 11.0136 38.5199 10.7938Z" fill="url(#paint2_linear_718_223)"/>
<path d="M10.9498 19.9357C11.4091 19.1073 11.9176 18.3072 12.4726 17.5395C12.3916 17.9618 11.7628 18.3481 11.916 18.6638C12.2191 18.8853 13.0635 18.9434 13.4349 18.8814C13.7578 18.8274 13.9077 18.2034 14.109 18.2817C13.9366 18.5773 13.0338 19.7776 12.7825 20.1168L12.7557 20.0614C12.8561 19.8331 13.0432 19.6981 13.1795 19.4633L13.1481 19.4122C12.7475 19.4624 11.8836 19.309 11.5142 19.1479C11.285 19.3838 11.2391 19.807 10.9498 19.9357Z" fill="url(#paint3_linear_718_223)"/>
<path d="M15.7272 19.4935C16.1121 19.2649 17.7845 18.2829 18.1273 18.2249C18.0336 18.4696 17.2352 18.6088 17.3651 18.8379C17.6073 19.2652 18.4111 19.4812 18.8415 19.7099C18.8914 19.7364 18.8984 19.8515 18.901 19.9013C19.1338 19.869 19.6861 19.4802 19.7944 19.5167C20.154 19.6378 21.5538 20.2659 21.8316 19.9852C21.6656 20.5674 21.4937 21.1493 21.3557 21.7386L21.2978 21.6312C21.3125 21.4261 21.3279 21.3794 21.3922 21.1825C21.2299 20.7304 20.1652 20.5804 19.7413 20.5979C19.6283 20.6832 19.6138 20.8363 19.5648 20.9964L19.4887 20.9969C19.5745 20.5004 19.7337 20.0309 19.902 19.558C18.9592 20.0012 18.0973 20.4087 17.1607 20.8778L17.1695 20.8069C17.3975 20.6093 17.7388 20.4914 18.018 20.332C17.9262 20.2771 17.8386 20.2706 17.7326 20.2512C17.4697 19.9152 16.9929 19.7016 16.608 19.5292L16.5384 19.3199C16.3466 19.1406 16.0616 19.5503 15.7272 19.4935Z" fill="url(#paint4_linear_718_223)"/>
<defs>
<linearGradient id="paint0_linear_718_223" x1="31.7235" y1="6.61798" x2="31.7235" y2="56.384" gradientUnits="userSpaceOnUse">
<stop stop-color="white"/>
<stop offset="1" stop-color="white" stop-opacity="0.85"/>
</linearGradient>
<linearGradient id="paint1_linear_718_223" x1="31.7235" y1="6.61798" x2="31.7235" y2="56.384" gradientUnits="userSpaceOnUse">
<stop stop-color="white"/>
<stop offset="1" stop-color="white" stop-opacity="0.85"/>
</linearGradient>
<linearGradient id="paint2_linear_718_223" x1="31.7235" y1="6.61798" x2="31.7235" y2="56.384" gradientUnits="userSpaceOnUse">
<stop stop-color="white"/>
<stop offset="1" stop-color="white" stop-opacity="0.85"/>
</linearGradient>
<linearGradient id="paint3_linear_718_223" x1="31.7235" y1="6.61798" x2="31.7235" y2="56.384" gradientUnits="userSpaceOnUse">
<stop stop-color="white"/>
<stop offset="1" stop-color="white" stop-opacity="0.85"/>
</linearGradient>
<linearGradient id="paint4_linear_718_223" x1="31.7235" y1="6.61798" x2="31.7235" y2="56.384" gradientUnits="userSpaceOnUse">
<stop stop-color="white"/>
<stop offset="1" stop-color="white" stop-opacity="0.85"/>
</linearGradient>
</defs>
</svg>
