<svg width="128" height="128" viewBox="0 0 128 128" fill="none" xmlns="http://www.w3.org/2000/svg">
<rect width="128" height="128" rx="8" fill="#38B117"/>
<path d="M62.0296 13.2393C66.8315 13.1917 71.224 13.6453 75.8624 14.8025C97.0566 20.0903 112.718 38.177 113.994 60.144C115.378 83.9842 98.6995 105.336 75.8336 111.238C72.2831 112.155 68.7489 112.481 65.1211 112.735C62.8756 112.839 60.8685 112.683 58.6408 112.475C47.3659 111.42 37.705 106.953 29.2855 99.4862C19.5484 90.8107 13.657 78.622 12.9076 65.6022C12.1397 52.7654 16.4916 40.1477 25.0098 30.5139C34.8892 19.441 47.3996 14.06 62.0296 13.2393ZM24.9457 35.0791C23.8357 36.6143 22.8187 38.2146 21.9001 39.8714C18.0884 46.7462 16.0443 54.4603 15.9515 62.3206C15.7495 79.4407 24.7858 95.342 39.5974 103.93C54.4089 112.519 72.6984 112.461 87.4561 103.781C102.214 95.1006 111.151 79.1433 110.842 62.0248C110.7 54.1084 108.578 46.3535 104.671 39.4669C103.809 37.9471 102.864 36.4763 101.839 35.0609C96.0622 27.0784 87.9435 21.0924 78.6098 17.9337C68.4346 14.4903 57.3922 14.6012 47.2882 18.2484C38.3188 21.4861 30.5329 27.3512 24.9457 35.0791Z" fill="url(#paint0_linear_718_219)"/>
<path d="M47.2882 18.2484C57.3922 14.6012 68.4346 14.4903 78.6098 17.9337C87.9435 21.0924 96.0622 27.0784 101.839 35.0609C102.864 36.4763 103.809 37.9471 104.671 39.4669C108.578 46.3535 110.7 54.1084 110.842 62.0248C111.151 79.1433 102.214 95.1006 87.4561 103.781C72.6984 112.461 54.4089 112.519 39.5974 103.93C24.7858 95.342 15.7495 79.4407 15.9515 62.3206C16.0443 54.4603 18.0884 46.7462 21.9001 39.8714C22.8187 38.2146 23.8357 36.6143 24.9457 35.0791C30.5329 27.3512 38.3188 21.4861 47.2882 18.2484ZM49.9048 71.4837C52.7389 71.4704 55.8799 71.8422 58.8518 71.9115C65.3125 72.0517 71.7762 71.8684 78.2185 71.3624C78.5968 71.1684 84.6476 70.6925 85.9311 70.3673C85.9055 69.4013 86.0542 68.4983 86.114 67.5424C86.1844 66.4169 86.2315 65.2768 86.2847 64.149C86.5337 63.3212 86.3419 60.8885 86.5862 60.3165C86.6549 60.5279 86.6688 60.5327 86.8353 60.6891C87.218 60.8307 87.7098 60.8015 88.1043 60.7238C88.8436 60.578 88.9198 61.1201 89.842 61.0211L89.9349 61.0104C90.0755 61.2187 90.1958 63.3218 90.2279 63.7055C90.2053 65.467 90.2412 68.2467 89.8768 69.901C94.2045 69.0133 98.5557 68.0021 102.628 66.2072C103.77 65.7036 104.584 65.0934 105.602 64.5389L105.691 64.6135C106.497 64.4393 106.975 63.0913 107.399 62.531L107.615 62.8016C108.519 62.4442 109.577 62.6131 110.722 62.3367L110.842 62.0248C110.7 54.1084 108.578 46.3535 104.671 39.4669C103.809 37.9471 102.864 36.4763 101.839 35.0609C96.0622 27.0784 87.9435 21.0924 78.6098 17.9337C68.4346 14.4903 57.3922 14.6012 47.2882 18.2484C38.3188 21.4861 30.5329 27.3512 24.9457 35.0791C23.8357 36.6143 22.8187 38.2146 21.9001 39.8714C18.0884 46.7462 16.0443 54.4603 15.9515 62.3206L16.0371 62.3289C16.8508 62.4022 19.1378 62.099 19.4819 62.5821C20.2885 63.7144 20.1025 63.9717 21.3349 64.8052L21.6594 64.8394C26.2297 67.7409 31.7976 68.6471 36.9091 69.8483C36.6961 68.5791 36.6396 67.6748 36.6428 66.3864C36.6869 66.02 36.6774 65.6486 36.6779 65.2801C36.6799 63.8171 36.7986 62.3676 36.9198 60.9098L37.0092 61.1771C37.6204 61.4548 39.3738 60.4699 40.1356 60.5874C40.5494 60.6513 40.1959 62.4264 40.4685 62.8824C40.6097 65.3627 40.6148 67.9639 40.8546 70.4092C42.4731 70.59 44.123 70.8716 45.7564 71.0264C47.0416 71.1483 48.6469 71.222 49.9048 71.4837ZM104.602 77.877C100.242 83.2731 91.9446 88.2741 85.3687 90.4472C83.7892 94.8609 81.2877 99.3677 78.1491 102.842C77.8781 103.142 77.0975 103.87 77.1002 104.231C78.9213 103.45 81.3438 102.604 83.0956 101.698C92.6864 96.7406 100.199 88.7851 104.395 78.8165C104.5 78.5671 104.673 78.1368 104.602 77.877ZM44.5615 87.479C46.51 87.9187 48.4436 88.6624 50.4104 89.0357C58.3297 90.5384 65.9022 90.8936 73.8601 89.4601C76.6627 88.9552 79.5057 88.4161 82.2045 87.42C82.3556 87.0298 82.5306 86.6053 82.6627 86.2119C83.8921 82.8403 84.6471 79.256 85.1886 75.7183C85.2472 75.3359 85.3051 74.9811 85.4006 74.6048C83.3496 74.6428 80.6564 75.2567 78.5273 75.3372C76.7139 75.4057 74.8311 75.6559 73.0318 75.7446C68.717 75.9209 64.3981 75.9771 60.0801 75.9132C55.9652 75.846 51.8539 75.6299 47.7546 75.2651C46.6459 75.1583 42.2494 74.5303 41.3451 74.5652C41.826 77.8383 43.3412 84.5499 44.5615 87.479ZM49.8768 104.166L49.8229 104.098C49.0633 103.159 48.1263 102.332 47.338 101.372C44.5598 97.9867 43.2496 94.3362 41.3885 90.4997C35.4301 88.1502 30.1397 85.3821 25.3083 81.1225C24.7871 80.6629 22.4159 78.022 22.056 77.888C22.2483 78.5822 23.3331 80.6723 23.6728 81.3879C27.5875 89.6352 34.3437 96.4959 42.2896 100.934C43.4618 101.589 48.6666 104.039 49.8768 104.166ZM89.3683 73.8473C89.4308 76.0805 88.4272 80.1557 87.9535 82.4845C87.8194 83.1439 87.0763 85.1576 87.1952 85.6442C93.3708 82.812 99.7957 78.5596 103.835 72.9909C104.49 72.0873 105.589 69.9375 106.101 68.9176C106.069 68.8145 106.077 68.7758 106.017 68.7175C101.798 70.9941 96.8101 72.5528 92.101 73.4113C91.3624 73.546 90.0681 73.8122 89.3683 73.8473ZM37.2334 73.7996C33.4957 73.4376 28.2407 71.8541 24.7166 70.5082C23.3748 69.9957 21.9369 69.1707 20.7643 68.7172C20.9645 69.5006 21.4739 70.4632 21.8749 71.1756C24.508 75.8542 29.3279 79.8821 33.8491 82.6623C34.7761 83.2323 38.7454 85.3533 39.7501 85.7006C39.4724 84.204 38.8948 82.4889 38.5511 80.9692C38.0183 78.6133 37.5692 76.1912 37.2334 73.7996ZM75.8328 99.6442C78.2678 96.6836 78.8021 95.1321 80.5528 91.9763C79.1106 92.416 77.5005 92.7167 76.0156 93.0239C65.4347 95.2123 56.7633 94.3097 46.3789 92.0999C46.6971 93.1351 47.6908 94.7936 48.2568 95.7577C50.3645 99.3487 53.1095 102.717 56.8631 104.702C60.1587 106.43 64.0028 106.788 67.5609 105.699C70.8324 104.687 73.7431 102.308 75.8328 99.6442Z" fill="url(#paint1_linear_718_219)"/>
<path d="M47.2882 18.2484C57.3922 14.6012 68.4346 14.4903 78.6098 17.9337C87.9435 21.0924 96.0622 27.0784 101.839 35.0609C102.864 36.4763 103.809 37.9471 104.671 39.4669C108.578 46.3535 110.7 54.1084 110.842 62.0248L110.722 62.3367C109.577 62.6131 108.519 62.4442 107.615 62.8016L107.399 62.531C106.975 63.0913 106.497 64.4393 105.691 64.6135L105.602 64.5389C106.183 63.7013 108.191 62.6453 106.961 61.0618C104.102 57.3823 98.3019 56.3086 94.017 55.0813C92.6598 54.6925 91.2314 54.5534 89.9088 54.1948C90.2746 56.1302 90.405 61.746 90.2279 63.7055C90.1958 63.3218 90.0755 61.2187 89.9349 61.0104L89.842 61.0211C88.9198 61.1201 88.8436 60.578 88.1043 60.7238C87.7098 60.8015 87.218 60.8307 86.8353 60.6891C86.6688 60.5327 86.6549 60.5279 86.5862 60.3165C86.3419 60.8885 86.5337 63.3212 86.2847 64.149C86.3058 61.5122 86.2872 58.8497 86.0471 56.2216C85.9663 55.3381 85.91 54.4765 85.9112 53.5893C82.4714 53.2353 79.0517 52.769 75.5993 52.5549C74.6509 52.4962 73.6374 52.3468 72.6982 52.3275C62.9162 52.1262 53.1385 52.0323 43.4213 53.3667C42.8287 53.4482 41.3916 53.4362 40.9659 53.731C40.6105 54.5695 40.4962 61.5023 40.4685 62.8824C40.1959 62.4264 40.5494 60.6513 40.1356 60.5874C39.3738 60.4699 37.6204 61.4548 37.0092 61.1771L36.9198 60.9098C36.7986 62.3676 36.6799 63.8171 36.6779 65.2801C36.6774 65.6486 36.6869 66.02 36.6428 66.3864C36.3721 64.3914 36.5909 56.2036 36.9146 54.2498C32.3783 55.1207 23.456 57.0009 20.175 60.5901C19.786 61.0156 19.5001 61.752 19.5731 62.3607C19.6957 63.3828 20.8715 64.2318 21.6594 64.8394L21.3349 64.8052C20.1025 63.9717 20.2885 63.7144 19.4819 62.5821C19.1378 62.099 16.8508 62.4022 16.0371 62.3289L15.9515 62.3206C16.0443 54.4603 18.0884 46.7462 21.9001 39.8714C22.8187 38.2146 23.8357 36.6143 24.9457 35.0791C30.5329 27.3512 38.3188 21.4861 47.2882 18.2484ZM43.6637 39.9704C43.3317 41.1347 42.9878 42.2986 42.712 43.4773C42.1339 45.604 41.8262 47.5135 41.3367 49.6343C42.9798 49.2386 45.8031 49.0427 47.5293 48.8721C57.0244 48.0035 66.5736 47.8943 76.0861 48.5457C76.9222 48.6035 78.0004 48.739 78.8473 48.8298C80.5745 49.0149 83.7839 49.1555 85.351 49.5746C85.2753 49.2867 85.2267 48.9898 85.1887 48.6947C84.9198 46.6047 84.4061 44.5928 83.9158 42.5456C83.5064 41.0698 82.9557 39.5074 82.4859 38.0344C82.2623 37.8418 82.1507 37.6231 81.9942 37.3719C80.6244 36.8064 78.6141 36.3152 77.1621 35.9653C68.3663 33.8451 57.5608 33.9472 48.7921 36.2087C47.7067 36.4886 45.5958 37.0053 44.5704 37.4046C44.197 38.2331 43.8937 39.0913 43.6637 39.9704ZM87.7886 41.7879C88.1542 42.31 89.3697 49.2318 89.45 50.2285C95.5241 51.159 100.769 52.6015 106.195 55.5285C105.386 54.1205 104.44 52.369 103.478 51.0811C100.41 46.9747 96.2364 43.9493 91.8392 41.4118C91.8227 41.3995 91.8063 41.3871 91.7899 41.3747C90.2757 40.6351 88.4681 39.8213 87.0074 39.0605C87.1645 39.6025 87.7265 41.3465 87.7886 41.7879ZM38.9779 41.9938C39.1494 41.0009 39.4678 40.0617 39.8046 39.1159C37.9189 40.0023 36.1951 40.8173 34.322 41.7555C28.1036 45.9109 24.2513 48.3485 20.7351 55.4193C25.9211 52.6932 31.4215 51.166 37.1883 50.2672C37.4404 49.0694 38.5333 42.6557 38.9779 41.9938ZM22.1869 46.5519C22.9289 45.9171 23.7147 44.939 24.4095 44.3104C26.0758 42.8027 29.46 39.9336 31.4548 38.987C32.2247 38.5298 35.5696 36.5658 36.2552 36.4498C37.7564 35.4712 39.9383 34.8964 41.4996 34.109C42.0053 33.3343 42.3821 32.4158 42.778 31.5982C44.3098 28.4351 46.1822 25.2582 48.6707 22.7508C48.9527 22.4666 49.2325 22.1512 49.5058 21.8517C48.5719 21.505 41.9004 24.9163 40.75 25.6097C36.2099 28.346 31.3842 32.2968 28.2186 36.5633C27.8736 37.1546 26.0681 39.5551 25.5655 40.2335C25.3556 40.7189 24.7543 41.6487 24.4715 42.1735C23.6994 43.6274 22.9378 45.087 22.1869 46.5519ZM69.6599 20.9485C65.4208 19.1887 62.1123 18.9129 57.7455 20.7244C57.4267 20.8563 57.1099 20.9929 56.7952 21.134C52.3949 23.166 48.7552 28.4883 46.536 32.6552C56.3911 30.1492 66.1092 29.7136 76.0826 31.6646C77.3267 31.908 78.6823 32.3485 79.9155 32.4965C80.1336 31.9685 78.733 30.0427 78.4207 29.5276C76.1871 25.8431 73.512 22.9636 69.6599 20.9485ZM77.0402 21.5876C80.7428 25.1917 83.1315 29.6131 85.2539 34.2479C86.7048 34.7376 89.3034 35.61 90.5755 36.4436C91.5834 36.8905 95.7919 38.9997 96.3794 39.6579C99.4572 41.3971 102.149 44.0149 104.534 46.5643C103.551 44.1066 102.391 42.6289 101.383 40.5495C101.451 40.6065 98.5689 36.5318 98.5762 36.5472C98.1455 36.1475 97.5797 35.4027 97.186 34.9391C92.717 29.6779 86.8259 25.4629 80.4571 22.8136C79.3368 22.3475 78.1838 22.0272 77.0402 21.5876Z" fill="url(#paint2_linear_718_219)"/>
<path d="M21.9001 39.8714C22.8187 38.2146 23.8357 36.6143 24.9457 35.0791C24.7837 35.9237 23.526 36.6962 23.8326 37.3275C24.4388 37.7706 26.1274 37.8869 26.8703 37.7628C27.516 37.6549 27.8159 36.4069 28.2186 36.5633C27.8736 37.1546 26.0681 39.5551 25.5655 40.2335L25.512 40.1228C25.7127 39.6663 26.0868 39.3962 26.3595 38.9266L26.2967 38.8245C25.4954 38.9248 23.7677 38.618 23.0289 38.2958C22.5705 38.7677 22.4787 39.614 21.9001 39.8714Z" fill="url(#paint3_linear_718_219)"/>
<path d="M31.4548 38.987C32.2247 38.5298 35.5696 36.5658 36.2552 36.4498C36.0677 36.9391 34.4709 37.2175 34.7307 37.6759C35.2152 38.5304 36.8226 38.9624 37.6835 39.4198C37.7834 39.4729 37.7974 39.703 37.8024 39.8026C38.2681 39.738 39.3727 38.9605 39.5893 39.0335C40.3086 39.2756 43.1082 40.5319 43.6637 39.9704C43.3317 41.1347 42.9878 42.2986 42.712 43.4773L42.5962 43.2624C42.6255 42.8521 42.6562 42.7588 42.7849 42.3651C42.4603 41.4607 40.331 41.1608 39.483 41.1959C39.2571 41.3664 39.2281 41.6727 39.13 41.9928L38.9779 41.9938C39.1494 41.0009 39.4678 40.0617 39.8046 39.1159C37.9189 40.0023 36.1951 40.8173 34.322 41.7555L34.3394 41.6138C34.7954 41.2187 35.478 40.9827 36.0365 40.664C35.8528 40.5542 35.6778 40.5412 35.4656 40.5023C34.9398 39.8303 33.9863 39.4032 33.2166 39.0583L33.0773 38.6397C32.6937 38.2812 32.1236 39.1006 31.4548 38.987Z" fill="url(#paint4_linear_718_219)"/>
<defs>
<linearGradient id="paint0_linear_718_219" x1="63.4475" y1="13.236" x2="63.4475" y2="112.768" gradientUnits="userSpaceOnUse">
<stop stop-color="white"/>
<stop offset="1" stop-color="white" stop-opacity="0.85"/>
</linearGradient>
<linearGradient id="paint1_linear_718_219" x1="63.4475" y1="13.236" x2="63.4475" y2="112.768" gradientUnits="userSpaceOnUse">
<stop stop-color="white"/>
<stop offset="1" stop-color="white" stop-opacity="0.85"/>
</linearGradient>
<linearGradient id="paint2_linear_718_219" x1="63.4475" y1="13.236" x2="63.4475" y2="112.768" gradientUnits="userSpaceOnUse">
<stop stop-color="white"/>
<stop offset="1" stop-color="white" stop-opacity="0.85"/>
</linearGradient>
<linearGradient id="paint3_linear_718_219" x1="63.4475" y1="13.236" x2="63.4475" y2="112.768" gradientUnits="userSpaceOnUse">
<stop stop-color="white"/>
<stop offset="1" stop-color="white" stop-opacity="0.85"/>
</linearGradient>
<linearGradient id="paint4_linear_718_219" x1="63.4475" y1="13.236" x2="63.4475" y2="112.768" gradientUnits="userSpaceOnUse">
<stop stop-color="white"/>
<stop offset="1" stop-color="white" stop-opacity="0.85"/>
</linearGradient>
</defs>
</svg>
